<?xml version="1.0" encoding="utf-8"?>
<!-- Svg Vector Icons : http://www.onlinewebfonts.com/icon -->
<!DOCTYPE svg PUBLIC "-//W3C//DTD SVG 1.1//EN" "http://www.w3.org/Graphics/SVG/1.1/DTD/svg11.dtd">
<svg version="1.1" xmlns="http://www.w3.org/2000/svg" xmlns:xlink="http://www.w3.org/1999/xlink" x="0px" y="0px" viewBox="0 0 1000 1000" enable-background="new 0 0 1000 1000" xml:space="preserve" fill="hsl(41,38%,50%)">
<metadata> Svg Vector Icons : http://www.onlinewebfonts.com/icon </metadata>
<g><g transform="translate(0.000000,426.000000) scale(0.100000,-0.100000)"><path d="M4592.3,2613.4c-218.2-392.4-396.2-719.7-396.2-727.3c0-7.7,361.8-13.4,803.9-13.4c442.1,0,803.9,5.7,803.9,13.4c0,23-790.5,1441.3-803.9,1441.3C4994.3,3327.4,4810.5,3005.8,4592.3,2613.4z"/><path d="M2927.1,2485.2c-112.9-90-447.9-635.5-580-947.5c-40.2-93.8-74.6-176.1-78.5-179.9c-1.9-3.8-444.1,183.8-980,417.3c-589.5,254.6-997.2,423-1033.6,423c-74.6,0-155-74.6-155-141.6c0-78.5,507.2-1242.2,558.9-1280.5c36.4-26.8,174.2-45.9,713.9-99.5c369.4-36.4,681.4-67,694.8-67c11.5,0,23-17.2,23-36.4c0-45.9,86.1-28.7-985.7-193.3c-484.3-74.6-899.6-143.6-920.7-155C142.1,203.6,100,132.8,100,83c0-15.3,80.4-227.8,176.1-470.9c185.7-465.1,210.5-503.4,317.7-499.6c28.7,1.9,403.9,132.1,836.5,289L2215-311.3l17.2-47.9c7.7-26.8,11.5-51.7,9.6-53.6c-3.8-3.8-283.3-189.5-620.2-413.4c-336.9-223.9-631.6-424.9-654.6-446c-30.6-26.8-44-61.3-44-109.1c0-63.2,23-91.9,292.8-359.8c262.2-260.3,300.5-290.9,357.9-290.9c59.3,0,109.1,44,578.1,511.1l511,511.1l47.9-44l47.9-44l-268-534c-145.5-292.9-266.1-555.1-266.1-581.9s21.1-70.8,47.9-95.7c45.9-47.9,47.9-47.9,436.4-47.9c344.5,0,396.2,3.8,432.6,34.5c24.9,21.1,111,220.1,231.6,547.4c164.6,436.4,202.9,522.5,258.4,576.1c145.5,135.9,170.4,346.4,68.9,555.1c-70.8,143.6-174.2,250.7-354.1,369.4c-210.5,139.7-319.6,296.7-403.9,591.5c-126.3,428.7-61.3,1068,181.8,1805c45.9,141.6,72.7,256.5,67,283.3C3162.5,2517.7,3022.8,2559.8,2927.1,2485.2z"/><path d="M6862.4,2494.8c-72.7-49.8-70.8-122.5,3.8-346.4c178-532.1,246.9-903.4,246.9-1328.4c-1.9-264.1-7.7-340.7-42.1-467c-86.1-312-202.9-486.2-424.9-631.6c-237.4-157-357.9-313.9-403.9-528.3c-28.7-135.9,15.3-281.4,116.7-382.8c67-67,99.5-135.9,268-589.5c122.5-323.5,206.7-522.5,231.6-543.6c36.4-30.6,88.1-34.5,432.6-34.5c388.6,0,390.5,0,436.4,47.9c26.8,24.9,47.9,68.9,47.9,95.7s-120.6,289-266.1,581.9l-268,534l47.9,44l47.9,44l511.1-511.1c468.9-467,518.7-511.1,578-511.1c57.4,0,95.7,30.6,357.9,290.9c271.8,271.8,292.9,296.7,292.9,361.7c0,55.5-13.4,82.3-53.6,116.8c-30.6,23-327.3,225.9-660.4,446c-568.5,375.2-606.8,405.8-595.3,449.8c5.8,26.8,11.5,49.8,13.4,51.7c1.9,1.9,357.9-126.3,788.6-283.3c432.6-158.9,807.7-287.1,836.4-289c107.2-3.8,132.1,34.4,317.7,499.6C9819.6-144.7,9900,67.7,9900,83c0,49.8-42.1,120.6-84.2,141.6c-21,11.5-436.4,80.4-920.7,155c-1070,164.6-985.7,147.4-985.7,193.3c0,19.1,11.5,36.4,24.9,36.4c11.5,0,323.5,30.6,692.9,67c539.8,53.6,677.6,72.7,713.9,99.5c51.7,38.3,558.9,1202,558.9,1280.5c0,67-80.4,141.6-155,141.6c-36.4,0-434.5-164.6-1010.6-413.4c-522.5-227.8-962.8-417.3-978.1-423c-21-5.7-38.3,15.3-55.5,65.1c-88,252.7-444,859.4-602.9,1027.8C7027,2531.1,6937,2546.4,6862.4,2494.8z"/><path d="M3608.5,978.8l-402-723.5l803.9-5.7c442.2-1.9,807.7,0,811.6,3.8c9.6,9.6-784.8,1445.1-800.1,1447C4016.2,1700.4,3830.5,1375,3608.5,978.8z"/><path d="M5568.5,978.8c-218.2-394.3-394.3-721.6-390.5-725.4c3.8-3.8,369.4-5.7,811.6-3.8l803.9,5.7l-402,723.5c-222,396.2-407.7,721.6-413.4,721.6C5972.3,1698.5,5786.7,1375,5568.5,978.8z"/><path d="M4575.1-958.2c-229.7-513-417.3-943.6-417.3-957c0-11.5,151.2-134,335-271.8l335-248.8v-208.6V-2855h-111c-95.7,0-118.7-7.7-158.9-49.8c-44-47.9-45.9-59.3-51.7-402l-5.7-354.1l174.2-530.2c187.6-566.6,214.4-616.3,327.3-616.3c105.3,0,134,55.5,321.6,616.3l176.1,530.2l-5.7,354.1c-5.7,342.6-7.6,354.1-51.7,402c-40.2,42.1-63.2,49.8-158.9,49.8h-111v210.5v210.5l336.9,250.7c277.5,206.7,335,258.4,327.3,289c-15.3,59.3-825,1872-836.4,1872C4994.3-22.2,4802.9-443.3,4575.1-958.2z"/><path d="M3765.4-2393.8c-103.4-65.1-541.7-524.4-557-583.8c-26.8-109.1,91.9-229.7,191.4-193.3c65.1,24.9,558.9,495.8,597.2,568.5c38.3,72.7,19.1,157-44,206.7C3891.8-2347.8,3840.1-2347.8,3765.4-2393.8z"/><path d="M6031.7-2412.9c-61.3-63.2-68.9-111-28.7-189.5c44-86.1,535.9-555.1,595.3-570.4c109.1-26.8,220.1,86.1,193.3,195.2c-9.6,34.5-107.2,149.3-266,310.1C6196.3-2332.5,6140.8-2305.7,6031.7-2412.9z"/><path d="M2923.2-3352.7c-277.5-59.3-407.7-210.5-386.6-446c11.5-132.1,91.9-310.1,195.2-430.7c59.3-67,80.4-80.4,141.6-80.4c51.7,0,84.2,13.4,116.8,47.9c65.1,68.9,57.4,139.7-34.4,275.6c-76.6,116.7-114.8,227.8-91.9,268c23,36.4,227.8,65.1,371.3,51.7c243.1-22.9,463.2-114.8,463.2-193.3c0-13.4,17.2-45.9,40.2-74.7c42.1-53.6,137.8-68.9,206.7-30.6c59.3,30.6,84.2,118.7,61.3,204.8c-45.9,166.5-233.5,312-490,379C3378.8-3345,3030.4-3327.8,2923.2-3352.7z"/><path d="M6561.9-3362.3c-197.1-38.3-369.4-122.5-467-227.8c-168.4-183.7-139.7-394.3,53.6-394.3c61.3,0,153.1,70.8,153.1,120.6c0,126.3,472.8,246.9,717.8,181.8c86.1-23,95.7-30.6,101.4-82.3c3.8-34.5-15.3-95.7-45.9-153.1c-26.8-51.7-67-126.3-88.1-164.6c-61.3-116.8,5.7-225.9,139.7-227.8c57.4,0,82.3,13.4,130.2,67c141.6,160.8,220.1,409.6,185.6,587.6c-19.1,103.3-128.2,216.3-256.5,264.1C7042.3-3335.5,6768.6-3324,6561.9-3362.3z"/></g></g>
</svg>